# xmcd
#
# Track frame offsets: 
#        150
#        13000
#        25263
#        38853
#        52033
#        68468
#        94505
#        107200
#        121970
#        134928
#        147605
#        159005
#        170358
#        183160
#
# Disc length: 2613 seconds
#
# Revision: 3
# Processed by: cddbd v1.5.2PL0 Copyright (c) Steve Scherf et al.
# Submitted via: ExactAudioCopyFreeDBPlugin 1.0
#
DISCID=bc0a330e
DTITLE=Otis Clay - The Complete Otis Clay on Hi Records
DYEAR=2000
DGENRE=Soul
TTITLE0=Trying to Live My Life Without You
TTITLE1=I Die a Little Each Day
TTITLE2=Holding on to a Dying Love
TTITLE3=I Can't Make it Alone
TTITLE4=That's How It Is
TTITLE5=I Love You, I Need You
TTITLE6=You Can't Keep Running from My Love
TTITLE7=Precious, Precious
TTITLE8=Home is Where is the Heart Is
TTITLE9=Too Many Hands
TTITLE10=Brand New Thing
TTITLE11=Let Me Be the One
TTITLE12=I Didn't Know the Meaning of Pain
TTITLE13=If I Could Reach Out
EXTD=YEAR: 2000
EXTT0=
EXTT1=
EXTT2=
EXTT3=
EXTT4=
EXTT5=
EXTT6=
EXTT7=
EXTT8=
EXTT9=
EXTT10=
EXTT11=
EXTT12=
EXTT13=
PLAYORDER=
